<svg version="1.1" id="Layer_1" xmlns="http://www.w3.org/2000/svg" xmlns:xlink="http://www.w3.org/1999/xlink" x="0px" y="0px"
	 width="100%" viewBox="0 0 976 976" enable-background="new 0 0 976 976" xml:space="preserve">
<path fill="#000000" opacity="1.000000" stroke="none" 
	d="
M454.006714,699.256348 
	C424.388580,693.780396 397.231964,683.217407 372.764099,666.333801 
	C325.208130,633.518677 294.879974,588.960876 283.784210,532.114197 
	C272.199402,472.761780 283.970093,417.895660 318.723419,368.430511 
	C341.644592,335.806305 371.830933,311.707977 408.683807,296.135071 
	C438.966156,283.338623 470.630859,277.789856 503.297058,279.910614 
	C554.445801,283.231293 599.138428,302.211273 636.557312,337.634705 
	C662.874878,362.548859 681.641418,392.247162 692.512451,426.783539 
	C703.245605,460.881531 705.419434,495.578094 698.747498,530.791260 
	C691.569214,568.677063 675.237000,602.181763 649.657166,630.865417 
	C616.750366,667.765076 575.926575,691.019775 526.933350,699.398071 
	C502.756622,703.532593 478.598145,703.405334 454.006714,699.256348 
M506.500061,381.309875 
	C470.016235,381.300842 433.532349,381.265869 397.048553,381.292694 
	C375.783386,381.308350 359.317780,397.603668 359.265533,418.903229 
	C359.169922,457.885468 359.171356,496.868378 359.281982,535.850586 
	C359.343353,557.484741 375.769928,573.709717 397.334778,573.721313 
	C432.319122,573.740051 467.303589,573.770874 502.287598,573.662231 
	C506.478577,573.649231 509.936401,574.651611 513.374451,577.133118 
	C536.599182,593.896179 559.932129,610.509399 583.269165,627.116272 
	C585.663696,628.820129 588.298706,631.067444 591.376709,628.630554 
	C594.553345,626.115662 593.984375,622.910889 592.521667,619.580078 
	C587.635437,608.453796 582.773010,597.315674 578.067627,586.112305 
	C576.486877,582.348633 574.303467,578.765747 573.528259,573.743774 
	C577.481262,573.743774 581.076721,573.785522 584.670959,573.737000 
	C606.741272,573.438904 622.695007,557.454468 622.746765,535.321533 
	C622.837585,496.505798 622.831970,457.689636 622.761841,418.873810 
	C622.723511,397.643433 606.222229,381.293915 584.965393,381.274353 
	C559.143616,381.250610 533.321838,381.295135 506.500061,381.309875 
z"/>
<path fill="#000000" opacity="1.000000" stroke="none" 
	d="
M560.855774,487.103638 
	C541.012451,495.563416 522.174805,486.571930 517.269836,466.631714 
	C515.810364,460.698456 516.760498,453.190613 520.013916,447.163666 
	C524.219421,449.496979 528.836182,451.066406 532.946045,446.917816 
	C536.827637,442.999573 536.283630,438.570618 533.604919,433.666473 
	C540.866028,429.319519 548.344666,429.404449 555.704468,431.663574 
	C568.507202,435.593384 575.733337,444.870819 576.828430,457.927216 
	C577.886597,470.544159 572.348633,480.465607 560.855774,487.103638 
z"/>
<path fill="#000000" opacity="1.000000" stroke="none" 
	d="
M405.351898,456.613861 
	C406.087830,452.437958 406.868927,448.729675 409.694702,445.119843 
	C414.281219,448.935150 419.096069,452.068909 424.577332,446.948883 
	C429.356934,442.484161 427.838806,437.735809 424.947479,433.142792 
	C431.836731,427.610626 448.257172,430.707825 456.218567,438.490173 
	C466.214966,448.261719 468.423035,463.856934 461.115112,476.036499 
	C453.934875,488.003265 439.022919,493.434998 425.518402,489.002655 
	C412.438049,484.709534 403.755371,471.003784 405.351898,456.613861 
z"/>
<path fill="#000000" opacity="1.000000" stroke="none" 
	d="
M462.520233,524.743591 
	C464.823242,520.591187 468.428864,519.416321 472.404205,519.362976 
	C485.216797,519.191223 498.032959,518.760620 510.842346,519.602600 
	C516.480286,519.973267 520.552795,523.758057 521.083984,529.306946 
	C521.545959,534.131836 517.800354,539.087402 512.734558,540.268921 
	C508.302856,541.302612 503.784637,540.979248 499.293732,540.989136 
	C490.797913,541.007812 482.292450,541.229248 473.808533,540.906189 
	C463.554108,540.515625 458.889404,533.830994 462.520233,524.743591 
z"/>
</svg>